<?xml version="1.0" encoding="utf-8"?>
<!-- Generator: Fusion 360, Shaper Origin Export Add-In, Version 1.5.0  -->
<svg enable-background="new 0 0 30.48 12.525" height="12.525cm" shaper:fusionaddin="version:1.5.0" version="1.1" viewBox="0 0 30.48 12.525" width="30.48cm" x="0cm" xml:space="preserve" xmlns="http://www.w3.org/2000/svg" xmlns:shaper="http://www.shapertools.com/namespaces/shaper" xmlns:xlink="http://www.w3.org/1999/xlink" y="0cm"><path d="M13.5875,-0.1 L13.5875,-0.4475 A0.1,0.1 180 0,1 13.6875,-0.5475 L14.0875,-0.5475 A0.1,0.1 270 0,1 14.1875,-0.4475 L14.1875,-0.1 A0.1,0.1 180 0,0 14.2875,0 L14.74,0 A0.1,0.1 270 0,1 14.84,0.1 L14.84,11.33 A0.1,0.1 0 0,1 14.74,11.43 L14.2875,11.43 A0.1,0.1 270 0,0 14.1875,11.53 L14.1875,11.8775 A0.1,0.1 0 0,1 14.0875,11.9775 L13.6875,11.9775 A0.1,0.1 90 0,1 13.5875,11.8775 L13.5875,11.53 A0.1,0.1 0 0,0 13.4875,11.43 L-0,11.43 A0.1,0.1 270 0,0 -0.1,11.53 L-0.1,11.8775 A0.1,0.1 0 0,1 -0.2,11.9775 L-0.6,11.9775 A0.1,0.1 90 0,1 -0.7,11.8775 L-0.7,11.53 A0.1,0.1 0 0,0 -0.8,11.43 L-14.2875,11.43 A0.1,0.1 270 0,0 -14.3875,11.53 L-14.3875,11.8775 A0.1,0.1 0 0,1 -14.4875,11.9775 L-14.8875,11.9775 A0.1,0.1 90 0,1 -14.9875,11.8775 L-14.9875,11.53 A0.1,0.1 0 0,0 -15.0875,11.43 L-15.54,11.43 A0.1,0.1 90 0,1 -15.64,11.33 L-15.64,9.4725 -14.0375,9.4725 A0.25,0.25 90 0,0 -13.7875,9.2225 L-13.7875,2.2075 A0.25,0.25 0 0,0 -14.0375,1.9575 L-15.64,1.9575 -15.64,0.1 A0.1,0.1 180 0,1 -15.54,0 L-15.0875,-0 A0.1,0.1 90 0,0 -14.9875,-0.1 L-14.9875,-0.4475 A0.1,0.1 180 0,1 -14.8875,-0.5475 L-14.4875,-0.5475 A0.1,0.1 270 0,1 -14.3875,-0.4475 L-14.3875,-0.1 A0.1,0.1 180 0,0 -14.2875,0 L-13.6825,0 -13.6825,1.6025 A0.25,0.25 180 0,0 -13.4325,1.8525 L-10.2275,1.8525 A0.25,0.25 90 0,0 -9.9775,1.6025 L-9.9775,0 -0.8,0 A0.1,0.1 90 0,0 -0.7,-0.1 L-0.7,-0.4475 A0.1,0.1 180 0,1 -0.6,-0.5475 L-0.2,-0.5475 A0.1,0.1 270 0,1 -0.1,-0.4475 L-0.1,-0.1 A0.1,0.1 180 0,0 -0,0 L13.4875,-0 A0.1,0.1 90 0,0 13.5875,-0.1z" shaper:cutDepth="0.0015" shaper:pathType="exterior" transform="matrix(1,0,0,-1,15.64,11.9775)" vector-effect="non-scaling-stroke" /><path d="M-10.941875,7.3675 A0.05,0.05 90 0,0 -10.891875,7.3175 L-10.891875,6.0175 A0.05,0.05 0 0,0 -10.941875,5.9675 L-12.241875,5.9675 A0.05,0.05 270 0,0 -12.291875,6.0175 L-12.291875,7.3175 A0.05,0.05 180 0,0 -12.241875,7.3675 L-10.941875,7.3675z" fill="rgb(255,255,255)" shaper:cutDepth="0.0015" shaper:pathType="interior" stroke="rgb(0,0,0)" stroke-width="0" transform="matrix(1,0,0,-1,15.64,11.9775)" vector-effect="non-scaling-stroke" /><path d="M-7.84625,7.3675 A0.05,0.05 90 0,0 -7.79625,7.3175 L-7.79625,6.0175 A0.05,0.05 0 0,0 -7.84625,5.9675 L-9.14625,5.9675 A0.05,0.05 270 0,0 -9.19625,6.0175 L-9.19625,7.3175 A0.05,0.05 180 0,0 -9.14625,7.3675 L-7.84625,7.3675z" fill="rgb(255,255,255)" shaper:cutDepth="0.0015" shaper:pathType="interior" stroke="rgb(0,0,0)" stroke-width="0" transform="matrix(1,0,0,-1,15.64,11.9775)" vector-effect="non-scaling-stroke" /><path d="M-10.098075,7.5675 A0.05,0.05 90 0,0 -10.048075,7.5175 L-10.048075,6.1175 A0.05,0.05 0 0,0 -10.098075,6.0675 L-10.698075,6.0675 A0.05,0.05 270 0,0 -10.748075,6.1175 L-10.748075,7.5175 A0.05,0.05 180 0,0 -10.698075,7.5675 L-10.098075,7.5675z" fill="rgb(255,255,255)" shaper:cutDepth="0.0015" shaper:pathType="interior" stroke="rgb(0,0,0)" stroke-width="0" transform="matrix(1,0,0,-1,15.64,11.9775)" vector-effect="non-scaling-stroke" /><path d="M13.346875,9.2725 A0.05,0.05 90 0,0 13.396875,9.2225 L13.396875,7.9225 A0.05,0.05 0 0,0 13.346875,7.8725 L12.046875,7.8725 A0.05,0.05 270 0,0 11.996875,7.9225 L11.996875,9.2225 A0.05,0.05 180 0,0 12.046875,9.2725 L13.346875,9.2725z" fill="rgb(255,255,255)" shaper:cutDepth="0.0015" shaper:pathType="interior" stroke="rgb(0,0,0)" stroke-width="0" transform="matrix(1,0,0,-1,15.64,11.9775)" vector-effect="non-scaling-stroke" /><path d="M8.34625,9.2725 A0.05,0.05 90 0,0 8.39625,9.2225 L8.39625,7.9225 A0.05,0.05 0 0,0 8.34625,7.8725 L7.04625,7.8725 A0.05,0.05 270 0,0 6.99625,7.9225 L6.99625,9.2225 A0.05,0.05 180 0,0 7.04625,9.2725 L8.34625,9.2725z" fill="rgb(255,255,255)" shaper:cutDepth="0.0015" shaper:pathType="interior" stroke="rgb(0,0,0)" stroke-width="0" transform="matrix(1,0,0,-1,15.64,11.9775)" vector-effect="non-scaling-stroke" /><path d="M-4.03625,7.3675 A0.05,0.05 90 0,0 -3.98625,7.3175 L-3.98625,6.0175 A0.05,0.05 0 0,0 -4.03625,5.9675 L-5.33625,5.9675 A0.05,0.05 270 0,0 -5.38625,6.0175 L-5.38625,7.3175 A0.05,0.05 180 0,0 -5.33625,7.3675 L-4.03625,7.3675z" fill="rgb(255,255,255)" shaper:cutDepth="0.0015" shaper:pathType="interior" stroke="rgb(0,0,0)" stroke-width="0" transform="matrix(1,0,0,-1,15.64,11.9775)" vector-effect="non-scaling-stroke" /><path d="M6.44125,9.2725 A0.05,0.05 90 0,0 6.49125,9.2225 L6.49125,7.9225 A0.05,0.05 0 0,0 6.44125,7.8725 L5.14125,7.8725 A0.05,0.05 270 0,0 5.09125,7.9225 L5.09125,9.2225 A0.05,0.05 180 0,0 5.14125,9.2725 L6.44125,9.2725z" fill="rgb(255,255,255)" shaper:cutDepth="0.0015" shaper:pathType="interior" stroke="rgb(0,0,0)" stroke-width="0" transform="matrix(1,0,0,-1,15.64,11.9775)" vector-effect="non-scaling-stroke" /><path d="M-0.22625,7.3675 A0.05,0.05 90 0,0 -0.17625,7.3175 L-0.17625,6.0175 A0.05,0.05 0 0,0 -0.22625,5.9675 L-1.52625,5.9675 A0.05,0.05 270 0,0 -1.57625,6.0175 L-1.57625,7.3175 A0.05,0.05 180 0,0 -1.52625,7.3675 L-0.22625,7.3675z" fill="rgb(255,255,255)" shaper:cutDepth="0.0015" shaper:pathType="interior" stroke="rgb(0,0,0)" stroke-width="0" transform="matrix(1,0,0,-1,15.64,11.9775)" vector-effect="non-scaling-stroke" /><path d="M-12.485675,7.5675 A0.05,0.05 90 0,0 -12.435675,7.5175 L-12.435675,6.1175 A0.05,0.05 0 0,0 -12.485675,6.0675 L-13.085675,6.0675 A0.05,0.05 270 0,0 -13.135675,6.1175 L-13.135675,7.5175 A0.05,0.05 180 0,0 -13.085675,7.5675 L-12.485675,7.5675z" fill="rgb(255,255,255)" shaper:cutDepth="0.0015" shaper:pathType="interior" stroke="rgb(0,0,0)" stroke-width="0" transform="matrix(1,0,0,-1,15.64,11.9775)" vector-effect="non-scaling-stroke" /><path d="M11.803075,9.4725 A0.05,0.05 90 0,0 11.853075,9.4225 L11.853075,8.0225 A0.05,0.05 0 0,0 11.803075,7.9725 L11.203075,7.9725 A0.05,0.05 270 0,0 11.153075,8.0225 L11.153075,9.4225 A0.05,0.05 180 0,0 11.203075,9.4725 L11.803075,9.4725z" fill="rgb(255,255,255)" shaper:cutDepth="0.0015" shaper:pathType="interior" stroke="rgb(0,0,0)" stroke-width="0" transform="matrix(1,0,0,-1,15.64,11.9775)" vector-effect="non-scaling-stroke" /><path d="M3.58375,7.3675 A0.05,0.05 90 0,0 3.63375,7.3175 L3.63375,6.0175 A0.05,0.05 0 0,0 3.58375,5.9675 L2.28375,5.9675 A0.05,0.05 270 0,0 2.23375,6.0175 L2.23375,7.3175 A0.05,0.05 180 0,0 2.28375,7.3675 L3.58375,7.3675z" fill="rgb(255,255,255)" shaper:cutDepth="0.0015" shaper:pathType="interior" stroke="rgb(0,0,0)" stroke-width="0" transform="matrix(1,0,0,-1,15.64,11.9775)" vector-effect="non-scaling-stroke" /><path d="M1.67875,7.3675 A0.05,0.05 90 0,0 1.72875,7.3175 L1.72875,6.0175 A0.05,0.05 0 0,0 1.67875,5.9675 L0.37875,5.9675 A0.05,0.05 270 0,0 0.32875,6.0175 L0.32875,7.3175 A0.05,0.05 180 0,0 0.37875,7.3675 L1.67875,7.3675z" fill="rgb(255,255,255)" shaper:cutDepth="0.0015" shaper:pathType="interior" stroke="rgb(0,0,0)" stroke-width="0" transform="matrix(1,0,0,-1,15.64,11.9775)" vector-effect="non-scaling-stroke" /><path d="M-5.94125,7.3675 A0.05,0.05 90 0,0 -5.89125,7.3175 L-5.89125,6.0175 A0.05,0.05 0 0,0 -5.94125,5.9675 L-7.24125,5.9675 A0.05,0.05 270 0,0 -7.29125,6.0175 L-7.29125,7.3175 A0.05,0.05 180 0,0 -7.24125,7.3675 L-5.94125,7.3675z" fill="rgb(255,255,255)" shaper:cutDepth="0.0015" shaper:pathType="interior" stroke="rgb(0,0,0)" stroke-width="0" transform="matrix(1,0,0,-1,15.64,11.9775)" vector-effect="non-scaling-stroke" /><path d="M-2.13125,7.3675 A0.05,0.05 90 0,0 -2.08125,7.3175 L-2.08125,6.0175 A0.05,0.05 0 0,0 -2.13125,5.9675 L-3.43125,5.9675 A0.05,0.05 270 0,0 -3.48125,6.0175 L-3.48125,7.3175 A0.05,0.05 180 0,0 -3.43125,7.3675 L-2.13125,7.3675z" fill="rgb(255,255,255)" shaper:cutDepth="0.0015" shaper:pathType="interior" stroke="rgb(0,0,0)" stroke-width="0" transform="matrix(1,0,0,-1,15.64,11.9775)" vector-effect="non-scaling-stroke" /><path d="M-6.89375,9.2725 A0.05,0.05 90 0,0 -6.84375,9.2225 L-6.84375,7.9225 A0.05,0.05 0 0,0 -6.89375,7.8725 L-8.19375,7.8725 A0.05,0.05 270 0,0 -8.24375,7.9225 L-8.24375,9.2225 A0.05,0.05 180 0,0 -8.19375,9.2725 L-6.89375,9.2725z" fill="rgb(255,255,255)" shaper:cutDepth="0.0015" shaper:pathType="interior" stroke="rgb(0,0,0)" stroke-width="0" transform="matrix(1,0,0,-1,15.64,11.9775)" vector-effect="non-scaling-stroke" /><path d="M-1.17875,9.2725 A0.05,0.05 90 0,0 -1.12875,9.2225 L-1.12875,7.9225 A0.05,0.05 0 0,0 -1.17875,7.8725 L-2.47875,7.8725 A0.05,0.05 270 0,0 -2.52875,7.9225 L-2.52875,9.2225 A0.05,0.05 180 0,0 -2.47875,9.2725 L-1.17875,9.2725z" fill="rgb(255,255,255)" shaper:cutDepth="0.0015" shaper:pathType="interior" stroke="rgb(0,0,0)" stroke-width="0" transform="matrix(1,0,0,-1,15.64,11.9775)" vector-effect="non-scaling-stroke" /><path d="M2.63125,9.2725 A0.05,0.05 90 0,0 2.68125,9.2225 L2.68125,7.9225 A0.05,0.05 0 0,0 2.63125,7.8725 L1.33125,7.8725 A0.05,0.05 270 0,0 1.28125,7.9225 L1.28125,9.2225 A0.05,0.05 180 0,0 1.33125,9.2725 L2.63125,9.2725z" fill="rgb(255,255,255)" shaper:cutDepth="0.0015" shaper:pathType="interior" stroke="rgb(0,0,0)" stroke-width="0" transform="matrix(1,0,0,-1,15.64,11.9775)" vector-effect="non-scaling-stroke" /><path d="M-9.513125,9.2725 A0.05,0.05 90 0,0 -9.463125,9.2225 L-9.463125,7.9225 A0.05,0.05 0 0,0 -9.513125,7.8725 L-10.813125,7.8725 A0.05,0.05 270 0,0 -10.863125,7.9225 L-10.863125,9.2225 A0.05,0.05 180 0,0 -10.813125,9.2725 L-9.513125,9.2725z" fill="rgb(255,255,255)" shaper:cutDepth="0.0015" shaper:pathType="interior" stroke="rgb(0,0,0)" stroke-width="0" transform="matrix(1,0,0,-1,15.64,11.9775)" vector-effect="non-scaling-stroke" /><path d="M-3.08375,9.2725 A0.05,0.05 90 0,0 -3.03375,9.2225 L-3.03375,7.9225 A0.05,0.05 0 0,0 -3.08375,7.8725 L-4.38375,7.8725 A0.05,0.05 270 0,0 -4.43375,7.9225 L-4.43375,9.2225 A0.05,0.05 180 0,0 -4.38375,9.2725 L-3.08375,9.2725z" fill="rgb(255,255,255)" shaper:cutDepth="0.0015" shaper:pathType="interior" stroke="rgb(0,0,0)" stroke-width="0" transform="matrix(1,0,0,-1,15.64,11.9775)" vector-effect="non-scaling-stroke" /><path d="M-2.956875,11.3775 A0.05,0.05 90 0,0 -2.906875,11.3275 L-2.906875,9.9275 A0.05,0.05 0 0,0 -2.956875,9.8775 L-3.556875,9.8775 A0.05,0.05 270 0,0 -3.606875,9.9275 L-3.606875,11.3275 A0.05,0.05 180 0,0 -3.556875,11.3775 L-2.956875,11.3775z" fill="rgb(255,255,255)" shaper:cutDepth="0.0015" shaper:pathType="interior" stroke="rgb(0,0,0)" stroke-width="0" transform="matrix(1,0,0,-1,15.64,11.9775)" vector-effect="non-scaling-stroke" /><path d="M-4.93875,7.9225 A0.05,0.05 0 0,0 -4.98875,7.8725 L-6.28875,7.8725 A0.05,0.05 270 0,0 -6.33875,7.9225 L-6.33875,9.2225 A0.05,0.05 180 0,0 -6.28875,9.2725 L-4.98875,9.2725 A0.05,0.05 90 0,0 -4.93875,9.2225 L-4.93875,7.9225z" fill="rgb(255,255,255)" shaper:cutDepth="0.0015" shaper:pathType="interior" stroke="rgb(0,0,0)" stroke-width="0" transform="matrix(1,0,0,-1,15.64,11.9775)" vector-effect="non-scaling-stroke" /><path d="M-4.5125,11.1775 A0.05,0.05 90 0,0 -4.4625,11.1275 L-4.4625,9.8275 A0.05,0.05 0 0,0 -4.5125,9.7775 L-5.8125,9.7775 A0.05,0.05 270 0,0 -5.8625,9.8275 L-5.8625,11.1275 A0.05,0.05 180 0,0 -5.8125,11.1775 L-4.5125,11.1775z" fill="rgb(255,255,255)" shaper:cutDepth="0.0015" shaper:pathType="interior" stroke="rgb(0,0,0)" stroke-width="0" transform="matrix(1,0,0,-1,15.64,11.9775)" vector-effect="non-scaling-stroke" /><path d="M9.536875,11.1775 A0.05,0.05 90 0,0 9.586875,11.1275 L9.586875,9.8275 A0.05,0.05 0 0,0 9.536875,9.7775 L8.236875,9.7775 A0.05,0.05 270 0,0 8.186875,9.8275 L8.186875,11.1275 A0.05,0.05 180 0,0 8.236875,11.1775 L9.536875,11.1775z" fill="rgb(255,255,255)" shaper:cutDepth="0.0015" shaper:pathType="interior" stroke="rgb(0,0,0)" stroke-width="0" transform="matrix(1,0,0,-1,15.64,11.9775)" vector-effect="non-scaling-stroke" /><path d="M0.72625,9.2725 A0.05,0.05 90 0,0 0.77625,9.2225 L0.77625,7.9225 A0.05,0.05 0 0,0 0.72625,7.8725 L-0.57375,7.8725 A0.05,0.05 270 0,0 -0.62375,7.9225 L-0.62375,9.2225 A0.05,0.05 180 0,0 -0.57375,9.2725 L0.72625,9.2725z" fill="rgb(255,255,255)" shaper:cutDepth="0.0015" shaper:pathType="interior" stroke="rgb(0,0,0)" stroke-width="0" transform="matrix(1,0,0,-1,15.64,11.9775)" vector-effect="non-scaling-stroke" /><path d="M14.299375,11.1775 A0.05,0.05 90 0,0 14.349375,11.1275 L14.349375,9.8275 A0.05,0.05 0 0,0 14.299375,9.7775 L12.999375,9.7775 A0.05,0.05 270 0,0 12.949375,9.8275 L12.949375,11.1275 A0.05,0.05 180 0,0 12.999375,11.1775 L14.299375,11.1775z" fill="rgb(255,255,255)" shaper:cutDepth="0.0015" shaper:pathType="interior" stroke="rgb(0,0,0)" stroke-width="0" transform="matrix(1,0,0,-1,15.64,11.9775)" vector-effect="non-scaling-stroke" /><path d="M1.093125,9.7775 A0.05,0.05 270 0,0 1.043125,9.8275 L1.043125,11.1275 A0.05,0.05 180 0,0 1.093125,11.1775 L2.393125,11.1775 A0.05,0.05 90 0,0 2.443125,11.1275 L2.443125,9.8275 A0.05,0.05 0 0,0 2.393125,9.7775 L1.093125,9.7775z" fill="rgb(255,255,255)" shaper:cutDepth="0.0015" shaper:pathType="interior" stroke="rgb(0,0,0)" stroke-width="0" transform="matrix(1,0,0,-1,15.64,11.9775)" vector-effect="non-scaling-stroke" /><path d="M7.093125,9.9275 A0.05,0.05 0 0,0 7.043125,9.8775 L6.443125,9.8775 A0.05,0.05 270 0,0 6.393125,9.9275 L6.393125,11.3275 A0.05,0.05 180 0,0 6.443125,11.3775 L7.043125,11.3775 A0.05,0.05 90 0,0 7.093125,11.3275 L7.093125,9.9275z" fill="rgb(255,255,255)" shaper:cutDepth="0.0015" shaper:pathType="interior" stroke="rgb(0,0,0)" stroke-width="0" transform="matrix(1,0,0,-1,15.64,11.9775)" vector-effect="non-scaling-stroke" /><path d="M-12.1325,9.2725 A0.05,0.05 90 0,0 -12.0825,9.2225 L-12.0825,7.9225 A0.05,0.05 0 0,0 -12.1325,7.8725 L-13.4325,7.8725 A0.05,0.05 270 0,0 -13.4825,7.9225 L-13.4825,9.2225 A0.05,0.05 180 0,0 -13.4325,9.2725 L-12.1325,9.2725z" fill="rgb(255,255,255)" shaper:cutDepth="0.0015" shaper:pathType="interior" stroke="rgb(0,0,0)" stroke-width="0" transform="matrix(1,0,0,-1,15.64,11.9775)" vector-effect="non-scaling-stroke" /><path d="M11.968125,9.8275 A0.05,0.05 0 0,0 11.918125,9.7775 L10.618125,9.7775 A0.05,0.05 270 0,0 10.568125,9.8275 L10.568125,11.1275 A0.05,0.05 180 0,0 10.618125,11.1775 L11.918125,11.1775 A0.05,0.05 90 0,0 11.968125,11.1275 L11.968125,9.8275z" fill="rgb(255,255,255)" shaper:cutDepth="0.0015" shaper:pathType="interior" stroke="rgb(0,0,0)" stroke-width="0" transform="matrix(1,0,0,-1,15.64,11.9775)" vector-effect="non-scaling-stroke" /><path d="M-10.2275,11.1775 A0.05,0.05 90 0,0 -10.1775,11.1275 L-10.1775,9.8275 A0.05,0.05 0 0,0 -10.2275,9.7775 L-11.5275,9.7775 A0.05,0.05 270 0,0 -11.5775,9.8275 L-11.5775,11.1275 A0.05,0.05 180 0,0 -11.5275,11.1775 L-10.2275,11.1775z" fill="rgb(255,255,255)" shaper:cutDepth="0.0015" shaper:pathType="interior" stroke="rgb(0,0,0)" stroke-width="0" transform="matrix(1,0,0,-1,15.64,11.9775)" vector-effect="non-scaling-stroke" /><path d="M-6.4175,11.1775 A0.05,0.05 90 0,0 -6.3675,11.1275 L-6.3675,9.8275 A0.05,0.05 0 0,0 -6.4175,9.7775 L-7.7175,9.7775 A0.05,0.05 270 0,0 -7.7675,9.8275 L-7.7675,11.1275 A0.05,0.05 180 0,0 -7.7175,11.1775 L-6.4175,11.1775z" fill="rgb(255,255,255)" shaper:cutDepth="0.0015" shaper:pathType="interior" stroke="rgb(0,0,0)" stroke-width="0" transform="matrix(1,0,0,-1,15.64,11.9775)" vector-effect="non-scaling-stroke" /><path d="M-12.1325,11.1775 A0.05,0.05 90 0,0 -12.0825,11.1275 L-12.0825,9.8275 A0.05,0.05 0 0,0 -12.1325,9.7775 L-13.4325,9.7775 A0.05,0.05 270 0,0 -13.4825,9.8275 L-13.4825,11.1275 A0.05,0.05 180 0,0 -13.4325,11.1775 L-12.1325,11.1775z" fill="rgb(255,255,255)" shaper:cutDepth="0.0015" shaper:pathType="interior" stroke="rgb(0,0,0)" stroke-width="0" transform="matrix(1,0,0,-1,15.64,11.9775)" vector-effect="non-scaling-stroke" /><path d="M-8.3225,11.1775 A0.05,0.05 90 0,0 -8.2725,11.1275 L-8.2725,9.8275 A0.05,0.05 0 0,0 -8.3225,9.7775 L-9.6225,9.7775 A0.05,0.05 270 0,0 -9.6725,9.8275 L-9.6725,11.1275 A0.05,0.05 180 0,0 -9.6225,11.1775 L-8.3225,11.1775z" fill="rgb(255,255,255)" shaper:cutDepth="0.0015" shaper:pathType="interior" stroke="rgb(0,0,0)" stroke-width="0" transform="matrix(1,0,0,-1,15.64,11.9775)" vector-effect="non-scaling-stroke" /><path d="M-14.0375,11.1775 A0.05,0.05 90 0,0 -13.9875,11.1275 L-13.9875,9.8275 A0.05,0.05 0 0,0 -14.0375,9.7775 L-15.3375,9.7775 A0.05,0.05 270 0,0 -15.3875,9.8275 L-15.3875,11.1275 A0.05,0.05 180 0,0 -15.3375,11.1775 L-14.0375,11.1775z" fill="rgb(255,255,255)" shaper:cutDepth="0.0015" shaper:pathType="interior" stroke="rgb(0,0,0)" stroke-width="0" transform="matrix(1,0,0,-1,15.64,11.9775)" vector-effect="non-scaling-stroke" /><path d="M3.1075,1.6525 A0.05,0.05 90 0,0 3.1575,1.6025 L3.1575,0.3025 A0.05,0.05 0 0,0 3.1075,0.2525 L1.8075,0.2525 A0.05,0.05 270 0,0 1.7575,0.3025 L1.7575,1.6025 A0.05,0.05 180 0,0 1.8075,1.6525 L3.1075,1.6525z" fill="rgb(255,255,255)" shaper:cutDepth="0.0015" shaper:pathType="interior" stroke="rgb(0,0,0)" stroke-width="0" transform="matrix(1,0,0,-1,15.64,11.9775)" vector-effect="non-scaling-stroke" /><path d="M6.9175,1.6525 A0.05,0.05 90 0,0 6.9675,1.6025 L6.9675,0.3025 A0.05,0.05 0 0,0 6.9175,0.2525 L5.6175,0.2525 A0.05,0.05 270 0,0 5.5675,0.3025 L5.5675,1.6025 A0.05,0.05 180 0,0 5.6175,1.6525 L6.9175,1.6525z" fill="rgb(255,255,255)" shaper:cutDepth="0.0015" shaper:pathType="interior" stroke="rgb(0,0,0)" stroke-width="0" transform="matrix(1,0,0,-1,15.64,11.9775)" vector-effect="non-scaling-stroke" /><path d="M12.6325,1.6525 A0.05,0.05 90 0,0 12.6825,1.6025 L12.6825,0.3025 A0.05,0.05 0 0,0 12.6325,0.2525 L11.3325,0.2525 A0.05,0.05 270 0,0 11.2825,0.3025 L11.2825,1.6025 A0.05,0.05 180 0,0 11.3325,1.6525 L12.6325,1.6525z" fill="rgb(255,255,255)" shaper:cutDepth="0.0015" shaper:pathType="interior" stroke="rgb(0,0,0)" stroke-width="0" transform="matrix(1,0,0,-1,15.64,11.9775)" vector-effect="non-scaling-stroke" /><path d="M5.0625,0.3025 A0.05,0.05 0 0,0 5.0125,0.2525 L3.7125,0.2525 A0.05,0.05 270 0,0 3.6625,0.3025 L3.6625,1.6025 A0.05,0.05 180 0,0 3.7125,1.6525 L5.0125,1.6525 A0.05,0.05 90 0,0 5.0625,1.6025 L5.0625,0.3025z" fill="rgb(255,255,255)" shaper:cutDepth="0.0015" shaper:pathType="interior" stroke="rgb(0,0,0)" stroke-width="0" transform="matrix(1,0,0,-1,15.64,11.9775)" vector-effect="non-scaling-stroke" /><path d="M10.7275,1.6525 A0.05,0.05 90 0,0 10.7775,1.6025 L10.7775,0.3025 A0.05,0.05 0 0,0 10.7275,0.2525 L9.4275,0.2525 A0.05,0.05 270 0,0 9.3775,0.3025 L9.3775,1.6025 A0.05,0.05 180 0,0 9.4275,1.6525 L10.7275,1.6525z" fill="rgb(255,255,255)" shaper:cutDepth="0.0015" shaper:pathType="interior" stroke="rgb(0,0,0)" stroke-width="0" transform="matrix(1,0,0,-1,15.64,11.9775)" vector-effect="non-scaling-stroke" /><path d="M7.5225,0.2525 A0.05,0.05 270 0,0 7.4725,0.3025 L7.4725,1.6025 A0.05,0.05 180 0,0 7.5225,1.6525 L8.8225,1.6525 A0.05,0.05 90 0,0 8.8725,1.6025 L8.8725,0.3025 A0.05,0.05 0 0,0 8.8225,0.2525 L7.5225,0.2525z" fill="rgb(255,255,255)" shaper:cutDepth="0.0015" shaper:pathType="interior" stroke="rgb(0,0,0)" stroke-width="0" transform="matrix(1,0,0,-1,15.64,11.9775)" vector-effect="non-scaling-stroke" /><path d="M14.5375,1.6525 A0.05,0.05 90 0,0 14.5875,1.6025 L14.5875,0.3025 A0.05,0.05 0 0,0 14.5375,0.2525 L13.2375,0.2525 A0.05,0.05 270 0,0 13.1875,0.3025 L13.1875,1.6025 A0.05,0.05 180 0,0 13.2375,1.6525 L14.5375,1.6525z" fill="rgb(255,255,255)" shaper:cutDepth="0.0015" shaper:pathType="interior" stroke="rgb(0,0,0)" stroke-width="0" transform="matrix(1,0,0,-1,15.64,11.9775)" vector-effect="non-scaling-stroke" /><path d="M-4.5125,1.6525 A0.05,0.05 90 0,0 -4.4625,1.6025 L-4.4625,0.3025 A0.05,0.05 0 0,0 -4.5125,0.2525 L-5.8125,0.2525 A0.05,0.05 270 0,0 -5.8625,0.3025 L-5.8625,1.6025 A0.05,0.05 180 0,0 -5.8125,1.6525 L-4.5125,1.6525z" fill="rgb(255,255,255)" shaper:cutDepth="0.0015" shaper:pathType="interior" stroke="rgb(0,0,0)" stroke-width="0" transform="matrix(1,0,0,-1,15.64,11.9775)" vector-effect="non-scaling-stroke" /><path d="M1.2025,1.6525 A0.05,0.05 90 0,0 1.2525,1.6025 L1.2525,0.3025 A0.05,0.05 0 0,0 1.2025,0.2525 L-0.0975,0.2525 A0.05,0.05 270 0,0 -0.1475,0.3025 L-0.1475,1.6025 A0.05,0.05 180 0,0 -0.0975,1.6525 L1.2025,1.6525z" fill="rgb(255,255,255)" shaper:cutDepth="0.0015" shaper:pathType="interior" stroke="rgb(0,0,0)" stroke-width="0" transform="matrix(1,0,0,-1,15.64,11.9775)" vector-effect="non-scaling-stroke" /><path d="M-6.3675,0.3025 A0.05,0.05 0 0,0 -6.4175,0.2525 L-7.7175,0.2525 A0.05,0.05 270 0,0 -7.7675,0.3025 L-7.7675,1.6025 A0.05,0.05 180 0,0 -7.7175,1.6525 L-6.4175,1.6525 A0.05,0.05 90 0,0 -6.3675,1.6025 L-6.3675,0.3025z" fill="rgb(255,255,255)" shaper:cutDepth="0.0015" shaper:pathType="interior" stroke="rgb(0,0,0)" stroke-width="0" transform="matrix(1,0,0,-1,15.64,11.9775)" vector-effect="non-scaling-stroke" /><path d="M-2.5575,0.3025 A0.05,0.05 0 0,0 -2.6075,0.2525 L-3.9075,0.2525 A0.05,0.05 270 0,0 -3.9575,0.3025 L-3.9575,1.6025 A0.05,0.05 180 0,0 -3.9075,1.6525 L-2.6075,1.6525 A0.05,0.05 90 0,0 -2.5575,1.6025 L-2.5575,0.3025z" fill="rgb(255,255,255)" shaper:cutDepth="0.0015" shaper:pathType="interior" stroke="rgb(0,0,0)" stroke-width="0" transform="matrix(1,0,0,-1,15.64,11.9775)" vector-effect="non-scaling-stroke" /><path d="M14.5375,3.5575 A0.05,0.05 90 0,0 14.5875,3.5075 L14.5875,2.2075 A0.05,0.05 0 0,0 14.5375,2.1575 L13.2375,2.1575 A0.05,0.05 270 0,0 13.1875,2.2075 L13.1875,3.5075 A0.05,0.05 180 0,0 13.2375,3.5575 L14.5375,3.5575z" fill="rgb(255,255,255)" shaper:cutDepth="0.0015" shaper:pathType="interior" stroke="rgb(0,0,0)" stroke-width="0" transform="matrix(1,0,0,-1,15.64,11.9775)" vector-effect="non-scaling-stroke" /><path d="M-8.3225,1.6525 A0.05,0.05 90 0,0 -8.2725,1.6025 L-8.2725,0.3025 A0.05,0.05 0 0,0 -8.3225,0.2525 L-9.6225,0.2525 A0.05,0.05 270 0,0 -9.6725,0.3025 L-9.6725,1.6025 A0.05,0.05 180 0,0 -9.6225,1.6525 L-8.3225,1.6525z" fill="rgb(255,255,255)" shaper:cutDepth="0.0015" shaper:pathType="interior" stroke="rgb(0,0,0)" stroke-width="0" transform="matrix(1,0,0,-1,15.64,11.9775)" vector-effect="non-scaling-stroke" /><path d="M-13.9875,0.3025 A0.05,0.05 0 0,0 -14.0375,0.2525 L-15.3375,0.2525 A0.05,0.05 270 0,0 -15.3875,0.3025 L-15.3875,1.6025 A0.05,0.05 180 0,0 -15.3375,1.6525 L-14.0375,1.6525 A0.05,0.05 90 0,0 -13.9875,1.6025 L-13.9875,0.3025z" fill="rgb(255,255,255)" shaper:cutDepth="0.0015" shaper:pathType="interior" stroke="rgb(0,0,0)" stroke-width="0" transform="matrix(1,0,0,-1,15.64,11.9775)" vector-effect="non-scaling-stroke" /><path d="M-0.6525,0.3025 A0.05,0.05 0 0,0 -0.7025,0.2525 L-2.0025,0.2525 A0.05,0.05 270 0,0 -2.0525,0.3025 L-2.0525,1.6025 A0.05,0.05 180 0,0 -2.0025,1.6525 L-0.7025,1.6525 A0.05,0.05 90 0,0 -0.6525,1.6025 L-0.6525,0.3025z" fill="rgb(255,255,255)" shaper:cutDepth="0.0015" shaper:pathType="interior" stroke="rgb(0,0,0)" stroke-width="0" transform="matrix(1,0,0,-1,15.64,11.9775)" vector-effect="non-scaling-stroke" /><path d="M-0.7025,3.5575 A0.05,0.05 90 0,0 -0.6525,3.5075 L-0.6525,2.2075 A0.05,0.05 0 0,0 -0.7025,2.1575 L-2.0025,2.1575 A0.05,0.05 270 0,0 -2.0525,2.2075 L-2.0525,3.5075 A0.05,0.05 180 0,0 -2.0025,3.5575 L-0.7025,3.5575z" fill="rgb(255,255,255)" shaper:cutDepth="0.0015" shaper:pathType="interior" stroke="rgb(0,0,0)" stroke-width="0" transform="matrix(1,0,0,-1,15.64,11.9775)" vector-effect="non-scaling-stroke" /><path d="M5.0125,3.5575 A0.05,0.05 90 0,0 5.0625,3.5075 L5.0625,2.2075 A0.05,0.05 0 0,0 5.0125,2.1575 L3.7125,2.1575 A0.05,0.05 270 0,0 3.6625,2.2075 L3.6625,3.5075 A0.05,0.05 180 0,0 3.7125,3.5575 L5.0125,3.5575z" fill="rgb(255,255,255)" shaper:cutDepth="0.0015" shaper:pathType="interior" stroke="rgb(0,0,0)" stroke-width="0" transform="matrix(1,0,0,-1,15.64,11.9775)" vector-effect="non-scaling-stroke" /><path d="M3.1575,2.2075 A0.05,0.05 0 0,0 3.1075,2.1575 L1.8075,2.1575 A0.05,0.05 270 0,0 1.7575,2.2075 L1.7575,3.5075 A0.05,0.05 180 0,0 1.8075,3.5575 L3.1075,3.5575 A0.05,0.05 90 0,0 3.1575,3.5075 L3.1575,2.2075z" fill="rgb(255,255,255)" shaper:cutDepth="0.0015" shaper:pathType="interior" stroke="rgb(0,0,0)" stroke-width="0" transform="matrix(1,0,0,-1,15.64,11.9775)" vector-effect="non-scaling-stroke" /><path d="M10.7275,3.5575 A0.05,0.05 90 0,0 10.7775,3.5075 L10.7775,2.2075 A0.05,0.05 0 0,0 10.7275,2.1575 L9.4275,2.1575 A0.05,0.05 270 0,0 9.3775,2.2075 L9.3775,3.5075 A0.05,0.05 180 0,0 9.4275,3.5575 L10.7275,3.5575z" fill="rgb(255,255,255)" shaper:cutDepth="0.0015" shaper:pathType="interior" stroke="rgb(0,0,0)" stroke-width="0" transform="matrix(1,0,0,-1,15.64,11.9775)" vector-effect="non-scaling-stroke" /><path d="M12.6325,3.5575 A0.05,0.05 90 0,0 12.6825,3.5075 L12.6825,2.2075 A0.05,0.05 0 0,0 12.6325,2.1575 L11.3325,2.1575 A0.05,0.05 270 0,0 11.2825,2.2075 L11.2825,3.5075 A0.05,0.05 180 0,0 11.3325,3.5575 L12.6325,3.5575z" fill="rgb(255,255,255)" shaper:cutDepth="0.0015" shaper:pathType="interior" stroke="rgb(0,0,0)" stroke-width="0" transform="matrix(1,0,0,-1,15.64,11.9775)" vector-effect="non-scaling-stroke" /><path d="M6.9175,3.5575 A0.05,0.05 90 0,0 6.9675,3.5075 L6.9675,2.2075 A0.05,0.05 0 0,0 6.9175,2.1575 L5.6175,2.1575 A0.05,0.05 270 0,0 5.5675,2.2075 L5.5675,3.5075 A0.05,0.05 180 0,0 5.6175,3.5575 L6.9175,3.5575z" fill="rgb(255,255,255)" shaper:cutDepth="0.0015" shaper:pathType="interior" stroke="rgb(0,0,0)" stroke-width="0" transform="matrix(1,0,0,-1,15.64,11.9775)" vector-effect="non-scaling-stroke" /><path d="M1.2025,3.5575 A0.05,0.05 90 0,0 1.2525,3.5075 L1.2525,2.2075 A0.05,0.05 0 0,0 1.2025,2.1575 L-0.0975,2.1575 A0.05,0.05 270 0,0 -0.1475,2.2075 L-0.1475,3.5075 A0.05,0.05 180 0,0 -0.0975,3.5575 L1.2025,3.5575z" fill="rgb(255,255,255)" shaper:cutDepth="0.0015" shaper:pathType="interior" stroke="rgb(0,0,0)" stroke-width="0" transform="matrix(1,0,0,-1,15.64,11.9775)" vector-effect="non-scaling-stroke" /><path d="M8.8225,3.5575 A0.05,0.05 90 0,0 8.8725,3.5075 L8.8725,2.2075 A0.05,0.05 0 0,0 8.8225,2.1575 L7.5225,2.1575 A0.05,0.05 270 0,0 7.4725,2.2075 L7.4725,3.5075 A0.05,0.05 180 0,0 7.5225,3.5575 L8.8225,3.5575z" fill="rgb(255,255,255)" shaper:cutDepth="0.0015" shaper:pathType="interior" stroke="rgb(0,0,0)" stroke-width="0" transform="matrix(1,0,0,-1,15.64,11.9775)" vector-effect="non-scaling-stroke" /><path d="M-12.6738,2.3075 A0.05,0.05 0 0,0 -12.7238,2.2575 L-13.3238,2.2575 A0.05,0.05 270 0,0 -13.3738,2.3075 L-13.3738,3.7075 A0.05,0.05 180 0,0 -13.3238,3.7575 L-12.7238,3.7575 A0.05,0.05 90 0,0 -12.6738,3.7075 L-12.6738,2.3075z" fill="rgb(255,255,255)" shaper:cutDepth="0.0015" shaper:pathType="interior" stroke="rgb(0,0,0)" stroke-width="0" transform="matrix(1,0,0,-1,15.64,11.9775)" vector-effect="non-scaling-stroke" /><path d="M-2.6075,3.5575 A0.05,0.05 90 0,0 -2.5575,3.5075 L-2.5575,2.2075 A0.05,0.05 0 0,0 -2.6075,2.1575 L-3.9075,2.1575 A0.05,0.05 270 0,0 -3.9575,2.2075 L-3.9575,3.5075 A0.05,0.05 180 0,0 -3.9075,3.5575 L-2.6075,3.5575z" fill="rgb(255,255,255)" shaper:cutDepth="0.0015" shaper:pathType="interior" stroke="rgb(0,0,0)" stroke-width="0" transform="matrix(1,0,0,-1,15.64,11.9775)" vector-effect="non-scaling-stroke" /><path d="M14.06125,5.4625 A0.05,0.05 90 0,0 14.11125,5.4125 L14.11125,4.1125 A0.05,0.05 0 0,0 14.06125,4.0625 L12.76125,4.0625 A0.05,0.05 270 0,0 12.71125,4.1125 L12.71125,5.4125 A0.05,0.05 180 0,0 12.76125,5.4625 L14.06125,5.4625z" fill="rgb(255,255,255)" shaper:cutDepth="0.0015" shaper:pathType="interior" stroke="rgb(0,0,0)" stroke-width="0" transform="matrix(1,0,0,-1,15.64,11.9775)" vector-effect="non-scaling-stroke" /><path d="M-8.3225,3.5575 A0.05,0.05 90 0,0 -8.2725,3.5075 L-8.2725,2.2075 A0.05,0.05 0 0,0 -8.3225,2.1575 L-9.6225,2.1575 A0.05,0.05 270 0,0 -9.6725,2.2075 L-9.6725,3.5075 A0.05,0.05 180 0,0 -9.6225,3.5575 L-8.3225,3.5575z" fill="rgb(255,255,255)" shaper:cutDepth="0.0015" shaper:pathType="interior" stroke="rgb(0,0,0)" stroke-width="0" transform="matrix(1,0,0,-1,15.64,11.9775)" vector-effect="non-scaling-stroke" /><path d="M-4.5125,3.5575 A0.05,0.05 90 0,0 -4.4625,3.5075 L-4.4625,2.2075 A0.05,0.05 0 0,0 -4.5125,2.1575 L-5.8125,2.1575 A0.05,0.05 270 0,0 -5.8625,2.2075 L-5.8625,3.5075 A0.05,0.05 180 0,0 -5.8125,3.5575 L-4.5125,3.5575z" fill="rgb(255,255,255)" shaper:cutDepth="0.0015" shaper:pathType="interior" stroke="rgb(0,0,0)" stroke-width="0" transform="matrix(1,0,0,-1,15.64,11.9775)" vector-effect="non-scaling-stroke" /><path d="M-10.3362,3.7575 A0.05,0.05 90 0,0 -10.2862,3.7075 L-10.2862,2.3075 A0.05,0.05 0 0,0 -10.3362,2.2575 L-10.9362,2.2575 A0.05,0.05 270 0,0 -10.9862,2.3075 L-10.9862,3.7075 A0.05,0.05 180 0,0 -10.9362,3.7575 L-10.3362,3.7575z" fill="rgb(255,255,255)" shaper:cutDepth="0.0015" shaper:pathType="interior" stroke="rgb(0,0,0)" stroke-width="0" transform="matrix(1,0,0,-1,15.64,11.9775)" vector-effect="non-scaling-stroke" /><path d="M-6.4175,3.5575 A0.05,0.05 90 0,0 -6.3675,3.5075 L-6.3675,2.2075 A0.05,0.05 0 0,0 -6.4175,2.1575 L-7.7175,2.1575 A0.05,0.05 270 0,0 -7.7675,2.2075 L-7.7675,3.5075 A0.05,0.05 180 0,0 -7.7175,3.5575 L-6.4175,3.5575z" fill="rgb(255,255,255)" shaper:cutDepth="0.0015" shaper:pathType="interior" stroke="rgb(0,0,0)" stroke-width="0" transform="matrix(1,0,0,-1,15.64,11.9775)" vector-effect="non-scaling-stroke" /><path d="M-11.18,3.5575 A0.05,0.05 90 0,0 -11.13,3.5075 L-11.13,2.2075 A0.05,0.05 0 0,0 -11.18,2.1575 L-12.48,2.1575 A0.05,0.05 270 0,0 -12.53,2.2075 L-12.53,3.5075 A0.05,0.05 180 0,0 -12.48,3.5575 L-11.18,3.5575z" fill="rgb(255,255,255)" shaper:cutDepth="0.0015" shaper:pathType="interior" stroke="rgb(0,0,0)" stroke-width="0" transform="matrix(1,0,0,-1,15.64,11.9775)" vector-effect="non-scaling-stroke" /><path d="M9.775,5.4625 A0.05,0.05 90 0,0 9.825,5.4125 L9.825,4.1125 A0.05,0.05 0 0,0 9.775,4.0625 L8.475,4.0625 A0.05,0.05 270 0,0 8.425,4.1125 L8.425,5.4125 A0.05,0.05 180 0,0 8.475,5.4625 L9.775,5.4625z" fill="rgb(255,255,255)" shaper:cutDepth="0.0015" shaper:pathType="interior" stroke="rgb(0,0,0)" stroke-width="0" transform="matrix(1,0,0,-1,15.64,11.9775)" vector-effect="non-scaling-stroke" /><path d="M4.06,5.4625 A0.05,0.05 90 0,0 4.11,5.4125 L4.11,4.1125 A0.05,0.05 0 0,0 4.06,4.0625 L2.76,4.0625 A0.05,0.05 270 0,0 2.71,4.1125 L2.71,5.4125 A0.05,0.05 180 0,0 2.76,5.4625 L4.06,5.4625z" fill="rgb(255,255,255)" shaper:cutDepth="0.0015" shaper:pathType="interior" stroke="rgb(0,0,0)" stroke-width="0" transform="matrix(1,0,0,-1,15.64,11.9775)" vector-effect="non-scaling-stroke" /><path d="M11.68,5.4625 A0.05,0.05 90 0,0 11.73,5.4125 L11.73,4.1125 A0.05,0.05 0 0,0 11.68,4.0625 L10.38,4.0625 A0.05,0.05 270 0,0 10.33,4.1125 L10.33,5.4125 A0.05,0.05 180 0,0 10.38,5.4625 L11.68,5.4625z" fill="rgb(255,255,255)" shaper:cutDepth="0.0015" shaper:pathType="interior" stroke="rgb(0,0,0)" stroke-width="0" transform="matrix(1,0,0,-1,15.64,11.9775)" vector-effect="non-scaling-stroke" /><path d="M5.965,5.4625 A0.05,0.05 90 0,0 6.015,5.4125 L6.015,4.1125 A0.05,0.05 0 0,0 5.965,4.0625 L4.665,4.0625 A0.05,0.05 270 0,0 4.615,4.1125 L4.615,5.4125 A0.05,0.05 180 0,0 4.665,5.4625 L5.965,5.4625z" fill="rgb(255,255,255)" shaper:cutDepth="0.0015" shaper:pathType="interior" stroke="rgb(0,0,0)" stroke-width="0" transform="matrix(1,0,0,-1,15.64,11.9775)" vector-effect="non-scaling-stroke" /><path d="M2.155,5.4625 A0.05,0.05 90 0,0 2.205,5.4125 L2.205,4.1125 A0.05,0.05 0 0,0 2.155,4.0625 L0.855,4.0625 A0.05,0.05 270 0,0 0.805,4.1125 L0.805,5.4125 A0.05,0.05 180 0,0 0.855,5.4625 L2.155,5.4625z" fill="rgb(255,255,255)" shaper:cutDepth="0.0015" shaper:pathType="interior" stroke="rgb(0,0,0)" stroke-width="0" transform="matrix(1,0,0,-1,15.64,11.9775)" vector-effect="non-scaling-stroke" /><path d="M7.87,5.4625 A0.05,0.05 90 0,0 7.92,5.4125 L7.92,4.1125 A0.05,0.05 0 0,0 7.87,4.0625 L6.57,4.0625 A0.05,0.05 270 0,0 6.52,4.1125 L6.52,5.4125 A0.05,0.05 180 0,0 6.57,5.4625 L7.87,5.4625z" fill="rgb(255,255,255)" shaper:cutDepth="0.0015" shaper:pathType="interior" stroke="rgb(0,0,0)" stroke-width="0" transform="matrix(1,0,0,-1,15.64,11.9775)" vector-effect="non-scaling-stroke" /><path d="M-1.605,4.1125 A0.05,0.05 0 0,0 -1.655,4.0625 L-2.955,4.0625 A0.05,0.05 270 0,0 -3.005,4.1125 L-3.005,5.4125 A0.05,0.05 180 0,0 -2.955,5.4625 L-1.655,5.4625 A0.05,0.05 90 0,0 -1.605,5.4125 L-1.605,4.1125z" fill="rgb(255,255,255)" shaper:cutDepth="0.0015" shaper:pathType="interior" stroke="rgb(0,0,0)" stroke-width="0" transform="matrix(1,0,0,-1,15.64,11.9775)" vector-effect="non-scaling-stroke" /><path d="M0.25,5.4625 A0.05,0.05 90 0,0 0.3,5.4125 L0.3,4.1125 A0.05,0.05 0 0,0 0.25,4.0625 L-1.05,4.0625 A0.05,0.05 270 0,0 -1.1,4.1125 L-1.1,5.4125 A0.05,0.05 180 0,0 -1.05,5.4625 L0.25,5.4625z" fill="rgb(255,255,255)" shaper:cutDepth="0.0015" shaper:pathType="interior" stroke="rgb(0,0,0)" stroke-width="0" transform="matrix(1,0,0,-1,15.64,11.9775)" vector-effect="non-scaling-stroke" /><path d="M5.48875,7.3675 A0.05,0.05 90 0,0 5.53875,7.3175 L5.53875,6.0175 A0.05,0.05 0 0,0 5.48875,5.9675 L4.18875,5.9675 A0.05,0.05 270 0,0 4.13875,6.0175 L4.13875,7.3175 A0.05,0.05 180 0,0 4.18875,7.3675 L5.48875,7.3675z" fill="rgb(255,255,255)" shaper:cutDepth="0.0015" shaper:pathType="interior" stroke="rgb(0,0,0)" stroke-width="0" transform="matrix(1,0,0,-1,15.64,11.9775)" vector-effect="non-scaling-stroke" /><path d="M-9.225,4.1125 A0.05,0.05 0 0,0 -9.275,4.0625 L-10.575,4.0625 A0.05,0.05 270 0,0 -10.625,4.1125 L-10.625,5.4125 A0.05,0.05 180 0,0 -10.575,5.4625 L-9.275,5.4625 A0.05,0.05 90 0,0 -9.225,5.4125 L-9.225,4.1125z" fill="rgb(255,255,255)" shaper:cutDepth="0.0015" shaper:pathType="interior" stroke="rgb(0,0,0)" stroke-width="0" transform="matrix(1,0,0,-1,15.64,11.9775)" vector-effect="non-scaling-stroke" /><path d="M-7.37,5.4625 A0.05,0.05 90 0,0 -7.32,5.4125 L-7.32,4.1125 A0.05,0.05 0 0,0 -7.37,4.0625 L-8.67,4.0625 A0.05,0.05 270 0,0 -8.72,4.1125 L-8.72,5.4125 A0.05,0.05 180 0,0 -8.67,5.4625 L-7.37,5.4625z" fill="rgb(255,255,255)" shaper:cutDepth="0.0015" shaper:pathType="interior" stroke="rgb(0,0,0)" stroke-width="0" transform="matrix(1,0,0,-1,15.64,11.9775)" vector-effect="non-scaling-stroke" /><path d="M-5.465,5.4625 A0.05,0.05 90 0,0 -5.415,5.4125 L-5.415,4.1125 A0.05,0.05 0 0,0 -5.465,4.0625 L-6.765,4.0625 A0.05,0.05 270 0,0 -6.815,4.1125 L-6.815,5.4125 A0.05,0.05 180 0,0 -6.765,5.4625 L-5.465,5.4625z" fill="rgb(255,255,255)" shaper:cutDepth="0.0015" shaper:pathType="interior" stroke="rgb(0,0,0)" stroke-width="0" transform="matrix(1,0,0,-1,15.64,11.9775)" vector-effect="non-scaling-stroke" /><path d="M9.29875,7.3675 A0.05,0.05 90 0,0 9.34875,7.3175 L9.34875,6.0175 A0.05,0.05 0 0,0 9.29875,5.9675 L7.99875,5.9675 A0.05,0.05 270 0,0 7.94875,6.0175 L7.94875,7.3175 A0.05,0.05 180 0,0 7.99875,7.3675 L9.29875,7.3675z" fill="rgb(255,255,255)" shaper:cutDepth="0.0015" shaper:pathType="interior" stroke="rgb(0,0,0)" stroke-width="0" transform="matrix(1,0,0,-1,15.64,11.9775)" vector-effect="non-scaling-stroke" /><path d="M-11.65625,5.4625 A0.05,0.05 90 0,0 -11.60625,5.4125 L-11.60625,4.1125 A0.05,0.05 0 0,0 -11.65625,4.0625 L-12.95625,4.0625 A0.05,0.05 270 0,0 -13.00625,4.1125 L-13.00625,5.4125 A0.05,0.05 180 0,0 -12.95625,5.4625 L-11.65625,5.4625z" fill="rgb(255,255,255)" shaper:cutDepth="0.0015" shaper:pathType="interior" stroke="rgb(0,0,0)" stroke-width="0" transform="matrix(1,0,0,-1,15.64,11.9775)" vector-effect="non-scaling-stroke" /><path d="M7.39375,7.3675 A0.05,0.05 90 0,0 7.44375,7.3175 L7.44375,6.0175 A0.05,0.05 0 0,0 7.39375,5.9675 L6.09375,5.9675 A0.05,0.05 270 0,0 6.04375,6.0175 L6.04375,7.3175 A0.05,0.05 180 0,0 6.09375,7.3675 L7.39375,7.3675z" fill="rgb(255,255,255)" shaper:cutDepth="0.0015" shaper:pathType="interior" stroke="rgb(0,0,0)" stroke-width="0" transform="matrix(1,0,0,-1,15.64,11.9775)" vector-effect="non-scaling-stroke" /><path d="M-3.51,4.1125 A0.05,0.05 0 0,0 -3.56,4.0625 L-4.86,4.0625 A0.05,0.05 270 0,0 -4.91,4.1125 L-4.91,5.4125 A0.05,0.05 180 0,0 -4.86,5.4625 L-3.56,5.4625 A0.05,0.05 90 0,0 -3.51,5.4125 L-3.51,4.1125z" fill="rgb(255,255,255)" shaper:cutDepth="0.0015" shaper:pathType="interior" stroke="rgb(0,0,0)" stroke-width="0" transform="matrix(1,0,0,-1,15.64,11.9775)" vector-effect="non-scaling-stroke" /><path d="M11.20375,7.3675 A0.05,0.05 90 0,0 11.25375,7.3175 L11.25375,6.0175 A0.05,0.05 0 0,0 11.20375,5.9675 L9.90375,5.9675 A0.05,0.05 270 0,0 9.85375,6.0175 L9.85375,7.3175 A0.05,0.05 180 0,0 9.90375,7.3675 L11.20375,7.3675z" fill="rgb(255,255,255)" shaper:cutDepth="0.0015" shaper:pathType="interior" stroke="rgb(0,0,0)" stroke-width="0" transform="matrix(1,0,0,-1,15.64,11.9775)" vector-effect="non-scaling-stroke" /><path d="M13.823125,7.3675 A0.05,0.05 90 0,0 13.873125,7.3175 L13.873125,6.0175 A0.05,0.05 0 0,0 13.823125,5.9675 L12.523125,5.9675 A0.05,0.05 270 0,0 12.473125,6.0175 L12.473125,7.3175 A0.05,0.05 180 0,0 12.523125,7.3675 L13.823125,7.3675z" fill="rgb(255,255,255)" shaper:cutDepth="0.0015" shaper:pathType="interior" stroke="rgb(0,0,0)" stroke-width="0" transform="matrix(1,0,0,-1,15.64,11.9775)" vector-effect="non-scaling-stroke" /><path d="M10.25125,9.2725 A0.05,0.05 90 0,0 10.30125,9.2225 L10.30125,7.9225 A0.05,0.05 0 0,0 10.25125,7.8725 L8.95125,7.8725 A0.05,0.05 270 0,0 8.90125,7.9225 L8.90125,9.2225 A0.05,0.05 180 0,0 8.95125,9.2725 L10.25125,9.2725z" fill="rgb(255,255,255)" shaper:cutDepth="0.0015" shaper:pathType="interior" stroke="rgb(0,0,0)" stroke-width="0" transform="matrix(1,0,0,-1,15.64,11.9775)" vector-effect="non-scaling-stroke" /><path d="M14.190675,9.4725 A0.05,0.05 90 0,0 14.240675,9.4225 L14.240675,8.0225 A0.05,0.05 0 0,0 14.190675,7.9725 L13.590675,7.9725 A0.05,0.05 270 0,0 13.540675,8.0225 L13.540675,9.4225 A0.05,0.05 180 0,0 13.590675,9.4725 L14.190675,9.4725z" fill="rgb(255,255,255)" shaper:cutDepth="0.0015" shaper:pathType="interior" stroke="rgb(0,0,0)" stroke-width="0" transform="matrix(1,0,0,-1,15.64,11.9775)" vector-effect="non-scaling-stroke" /><path d="M4.53625,9.2725 A0.05,0.05 90 0,0 4.58625,9.2225 L4.58625,7.9225 A0.05,0.05 0 0,0 4.53625,7.8725 L3.23625,7.8725 A0.05,0.05 270 0,0 3.18625,7.9225 L3.18625,9.2225 A0.05,0.05 180 0,0 3.23625,9.2725 L4.53625,9.2725z" fill="rgb(255,255,255)" shaper:cutDepth="0.0015" shaper:pathType="interior" stroke="rgb(0,0,0)" stroke-width="0" transform="matrix(1,0,0,-1,15.64,11.9775)" vector-effect="non-scaling-stroke" /><path d="M-14.8875,-0.2975 a0.2,0.2 0 1,1 0.4,0 a0.2,0.2 0 1,1 -0.4,0z" fill="rgb(255,255,255)" shaper:cutDepth="0.0015" shaper:pathType="interior" stroke="rgb(0,0,0)" stroke-width="0" transform="matrix(1,0,0,-1,15.64,11.9775)" vector-effect="non-scaling-stroke" /><path d="M13.6875,11.7275 a0.2,0.2 0 1,1 0.4,0 a0.2,0.2 0 1,1 -0.4,0z" fill="rgb(255,255,255)" shaper:cutDepth="0.0015" shaper:pathType="interior" stroke="rgb(0,0,0)" stroke-width="0" transform="matrix(1,0,0,-1,15.64,11.9775)" vector-effect="non-scaling-stroke" /><path d="M-0.6,-0.2975 a0.2,0.2 0 1,1 0.4,0 a0.2,0.2 0 1,1 -0.4,0z" fill="rgb(255,255,255)" shaper:cutDepth="0.0015" shaper:pathType="interior" stroke="rgb(0,0,0)" stroke-width="0" transform="matrix(1,0,0,-1,15.64,11.9775)" vector-effect="non-scaling-stroke" /><path d="M-14.8875,11.7275 a0.2,0.2 0 1,1 0.4,0 a0.2,0.2 0 1,1 -0.4,0z" fill="rgb(255,255,255)" shaper:cutDepth="0.0015" shaper:pathType="interior" stroke="rgb(0,0,0)" stroke-width="0" transform="matrix(1,0,0,-1,15.64,11.9775)" vector-effect="non-scaling-stroke" /><path d="M-0.6,11.7275 a0.2,0.2 0 1,1 0.4,0 a0.2,0.2 0 1,1 -0.4,0z" fill="rgb(255,255,255)" shaper:cutDepth="0.0015" shaper:pathType="interior" stroke="rgb(0,0,0)" stroke-width="0" transform="matrix(1,0,0,-1,15.64,11.9775)" vector-effect="non-scaling-stroke" /><path d="M13.6875,-0.2975 a0.2,0.2 0 1,1 0.4,0 a0.2,0.2 0 1,1 -0.4,0z" fill="rgb(255,255,255)" shaper:cutDepth="0.0015" shaper:pathType="interior" stroke="rgb(0,0,0)" stroke-width="0" transform="matrix(1,0,0,-1,15.64,11.9775)" vector-effect="non-scaling-stroke" /></svg>